# xmcd
#
# Track frame offsets:
#	150
#	29255
#	73901
#	95853
#	121290
#	139234
#	153472
#	170066
#	187092
#	207913
#	236749
#	251635
#
# Disc length: 3529 seconds
#
# Revision: 0
# Processed by: cddbd v1.5.2PL0 Copyright (c) Steve Scherf et al.
# Submitted via: audiograbber 1.82.01
#
DISCID=ba0dc70c
DTITLE=Ñako Goñi - Blues con los Colegas
DYEAR=2006
DGENRE=Blues
TTITLE0=Ñako Goñi and ARmando Marcé - Thrill is Gone
TTITLE1=Ñako Goñi and Los Jokers - Get out my Life
TTITLE2=Ñako Goñi and Whisky David y Bluescavidas - Talk to my Babe
TTITLE3=Ñako Goñi and Tonky Blues Band (de 1988) - Hey, hey
TTITLE4=Ñako Goñi and J. Teixi Band (Mermelada) - Lawyer Clark
TTITLE5=Ñako Goñi and Fede Aguado - Circunstancial Evidences
TTITLE6=Ñako Goñi and Miguel Ríos - TV Mama
TTITLE7=Ñako Goñi and Amar Sundy - Vuelvo al foro
TTITLE8=Ñako Goñi and Edu Bighands y Whiskey Train - Everyday I Have the Blues
TTITLE9=Ñako Goñi and Antonio Serrano - Hoochie Coochie man
TTITLE10=Ñako Goñi and Miki Nervio - Negro Como un Blues
TTITLE11=Ñako Goñi and Mingo Balaguer con Danny Boy - Eagle Riding Papa
EXTD=
EXTT0=
EXTT1=
EXTT2=
EXTT3=
EXTT4=
EXTT5=
EXTT6=
EXTT7=
EXTT8=
EXTT9=
EXTT10=
EXTT11=
PLAYORDER=
